<?xml version="1.0" encoding="utf-8"?>
<!-- Generator: Adobe Illustrator 27.5.0, SVG Export Plug-In . SVG Version: 6.00 Build 0)  -->
<svg version="1.1" xmlns="http://www.w3.org/2000/svg" xmlns:xlink="http://www.w3.org/1999/xlink" x="0px" y="0px"
	 viewBox="0 0 500 500" style="enable-background:new 0 0 500 500;" xml:space="preserve">
<g id="Shape">
	<g id="Shape_1_">
		<ellipse id="path--inject-76" style="fill:#F5F5F5;" cx="250" cy="416.24" rx="193.89" ry="11.32"/>
	</g>
</g>
<g id="Background_Complete">
	<g>
		<g>
			<rect x="0.119" y="381.963" style="fill:#E0E0E0;" width="500" height="0.25"/>
			<rect x="51.769" y="393.953" style="fill:#E0E0E0;" width="57.77" height="0.25"/>
			<rect x="209.459" y="388.523" style="fill:#E0E0E0;" width="26.32" height="0.25"/>
			<rect x="245.399" y="388.393" style="fill:#E0E0E0;" width="51.28" height="0.25"/>
			<rect x="381.799" y="391.393" style="fill:#E0E0E0;" width="12.49" height="0.25"/>
			<rect x="288.849" y="391.393" style="fill:#E0E0E0;" width="49.82" height="0.25"/>
			<rect x="119.219" y="393.953" style="fill:#E0E0E0;" width="9.9" height="0.25"/>
			<rect x="402.449" y="391.393" style="fill:#E0E0E0;" width="43.25" height="0.25"/>
			<path style="fill:#E0E0E0;" d="M237.12,54.56H44.03c-2.57,0.01-4.74,1.71-5.45,4.05c-0.16,0.51-0.25,1.05-0.25,1.61v271.43
				c0,3.15,2.55,5.71,5.7,5.71h193.09c3.15,0,5.71-2.55,5.71-5.71V60.27C242.83,57.12,240.27,54.56,237.12,54.56z M242.58,331.65
				c-0.01,3.02-2.45,5.46-5.46,5.46H44.03c-3.01,0-5.45-2.45-5.45-5.46V60.22c0-3.01,2.44-5.45,5.45-5.46h193.09
				c3.01,0.01,5.45,2.45,5.46,5.46V331.65z"/>
			<path style="fill:#E0E0E0;" d="M453.43,54.56h-193.1c-3.13,0.01-5.68,2.53-5.71,5.66v271.43c0,3.15,2.56,5.71,5.71,5.71h193.1
				c3.14-0.01,5.69-2.56,5.69-5.71V60.22C459.09,57.1,456.56,54.57,453.43,54.56z M458.89,331.65c-0.01,3.02-2.45,5.46-5.46,5.46
				h-193.1c-3.01,0-5.46-2.44-5.46-5.46V60.22c0-3.01,2.45-5.45,5.46-5.46h193.1c3.01,0.01,5.45,2.45,5.46,5.46V331.65z"/>
		</g>
		<path style="fill:#F5F5F5;" d="M371.147,103.692H477c0,0-6.391-11.584-19.573-7.989c0,0,1.598-19.351-8.788-22.458
			c-10.385-3.107-15.978,8.877-15.978,8.877s-7.19-22.369-20.771-19.573c-13.581,2.796-19.173,25.964-19.173,25.964
			S372.745,81.323,371.147,103.692z"/>
		<path style="fill:#F5F5F5;" d="M218.112,141.557h105.853c0,0-6.391-11.584-19.573-7.989c0,0,1.598-19.351-8.788-22.458
			c-10.386-3.107-15.978,8.877-15.978,8.877s-7.19-22.369-20.771-19.573c-13.581,2.796-19.173,25.964-19.173,25.964
			S219.71,119.188,218.112,141.557z"/>
		<g>
			<rect x="38.663" y="70.198" style="fill:#F5F5F5;" width="177.535" height="311.764"/>
			<g>
				<rect x="74.074" y="169.763" style="fill:#FAFAFA;" width="112.543" height="212.45"/>
				<rect x="82.178" y="176.511" style="fill:#E6E6E6;" width="97.325" height="205.702"/>
			</g>
			<g>
				<path style="fill:#EBEBEB;" d="M222.619,72.47H38.605V58.61c0.782-2.34,3.172-4.04,6.002-4.05H216.33l0.077,0.2l4.516,12.87
					L222.619,72.47z"/>
				<ellipse style="fill:#EBEBEB;" cx="47.543" cy="72.47" rx="9.214" ry="8.366"/>
				<ellipse style="fill:#EBEBEB;" cx="65.971" cy="72.47" rx="9.214" ry="8.366"/>
				<ellipse style="fill:#EBEBEB;" cx="84.4" cy="72.47" rx="9.214" ry="8.366"/>
				<ellipse style="fill:#EBEBEB;" cx="102.828" cy="72.47" rx="9.214" ry="8.366"/>
				<ellipse style="fill:#EBEBEB;" cx="121.257" cy="72.47" rx="9.214" ry="8.366"/>
				<ellipse style="fill:#EBEBEB;" cx="139.685" cy="72.47" rx="9.214" ry="8.366"/>
				<ellipse style="fill:#EBEBEB;" cx="158.114" cy="72.47" rx="9.214" ry="8.366"/>
				<ellipse style="fill:#EBEBEB;" cx="176.542" cy="72.47" rx="9.214" ry="8.366"/>
				<ellipse style="fill:#EBEBEB;" cx="194.971" cy="72.47" rx="9.214" ry="8.366"/>
				<path style="fill:#EBEBEB;" d="M222.619,72.47c0,4.62-4.13,8.37-9.218,8.37s-9.218-3.75-9.218-8.37c0-4.62,4.13-8.37,9.218-8.37
					c3.106,0,5.848,1.39,7.522,3.53L222.619,72.47z"/>
			</g>
			<rect x="38.663" y="97.257" style="fill:#FAFAFA;" width="177.535" height="2.915"/>
		</g>
		<g>
			<rect x="216.198" y="315.877" style="fill:#E0E0E0;" width="137.703" height="6.189"/>
			<polygon style="fill:#E6E6E6;" points="245.158,381.947 224.37,381.947 224.37,285.461 234.764,276.579 245.158,285.461 			"/>
			<polygon style="fill:#E6E6E6;" points="274.942,381.947 254.154,381.947 254.154,285.461 264.548,276.579 274.942,285.461 			"/>
			<polygon style="fill:#E6E6E6;" points="304.726,381.947 283.938,381.947 283.938,285.461 294.332,276.579 304.726,285.461 			"/>
			<polygon style="fill:#E6E6E6;" points="334.51,381.947 313.722,381.947 313.722,285.461 324.116,276.579 334.51,285.461 			"/>
			<polygon style="fill:#E6E6E6;" points="364.294,381.947 343.507,381.947 343.507,285.461 353.9,276.579 364.294,285.461 			"/>
		</g>
	</g>
</g>
<g id="Background_Simple" style="display:none;">
	<g style="display:inline;">
		<path style="fill:#407BFF;" d="M98.044,104.554c-4.956,6.587-9.134,14.016-12.353,22.213
			c-25.428,64.745,7.203,140.326,62.54,178.018c45.648,31.092,103.181,43.898,157.797,36.455
			c52.242-7.12,140.045-46.008,111.459-114.373c-15.219-36.396-55.408-39.645-88.787-48.254
			c-17.197-4.435-33.677-11.336-46.105-24.378c-13.671-14.345-20.553-33.661-34.042-48.184c-12.687-13.658-30.42-24.6-47.891-30.863
			C161.767,61.246,121.322,73.613,98.044,104.554z"/>
		<path style="opacity:0.9;fill:#FFFFFF;" d="M98.044,104.554c-4.956,6.587-9.134,14.016-12.353,22.213
			c-25.428,64.745,7.203,140.326,62.54,178.018c45.648,31.092,103.181,43.898,157.797,36.455
			c52.242-7.12,140.045-46.008,111.459-114.373c-15.219-36.396-55.408-39.645-88.787-48.254
			c-17.197-4.435-33.677-11.336-46.105-24.378c-13.671-14.345-20.553-33.661-34.042-48.184c-12.687-13.658-30.42-24.6-47.891-30.863
			C161.767,61.246,121.322,73.613,98.044,104.554z"/>
	</g>
</g>
<g id="Character_1">
	<g>
		<path style="fill:#263238;" d="M149.468,89.584c0,0-1.924-4.722-13.817-3.323s-13.118,17.14-19.064,28.334
			c-5.947,11.194-12.243,16.616-12.243,16.616s-0.874,6.821,12.068,10.669c12.943,3.848,38.303-2.581,38.303-2.581
			s3.279-29.793-1.596-38.879C148.243,91.332,149.468,89.584,149.468,89.584z"/>
		<path style="fill:#263238;" d="M184.232,387.145l-16.113,0.999c0,0-6.826-62.085-14.346-107.28
			c-0.018-0.157-0.046-0.324-0.074-0.49c-3.08-18.453-6.271-34.021-9.148-41.291c0,0-3.7,57.867-4.801,83.554
			c-1.101,25.696-6.225,70.641-6.225,70.641l-14.892,2.211c0,0-2.46-89.483-1.045-106.382c1.424-16.909-5.186-79.501,6.275-94.948
			h41.453c0,0,16.041,87.946,17.207,112.319C183.677,330.851,184.232,387.145,184.232,387.145z"/>
		<polygon style="fill:#FF8B7B;" points="130.019,393.491 129.778,398.291 129.223,409.4 120.88,410.64 120.695,398.652 
			120.621,394.036 		"/>
		<path style="fill:#FF8B7B;" d="M180.652,405.663l-9.333,2.599c0,0-0.222-5.615-0.444-11.007c-0.139-3.469-0.277-6.845-0.37-8.575
			c-0.037-0.666-0.055-1.082-0.074-1.175l10.055-1.008l0.028,3.163l0.065,7.141L180.652,405.663z"/>
		<path style="fill:none;stroke:#407BFF;stroke-miterlimit:10;" d="M132.581,406.944c0,0,1.553-6.214,3.961-5.903
			C138.95,401.352,132.581,406.944,132.581,406.944z"/>
		<path style="fill:none;stroke:#407BFF;stroke-miterlimit:10;" d="M133.28,406.944c0,0,5.826-4.117,6.913-2.02
			C141.28,407.022,133.28,406.944,133.28,406.944z"/>
		<path style="fill:none;stroke:#407BFF;stroke-miterlimit:10;" d="M184.235,407.566c0,0,1.292-6.547,2.743-6.536
			C188.429,401.041,184.235,407.566,184.235,407.566z"/>
		<path style="fill:none;stroke:#407BFF;stroke-miterlimit:10;" d="M183.924,409.611c0,0,3.418-6.732,5.204-5.282
			C190.915,405.779,183.924,409.611,183.924,409.611z"/>
		<path style="fill:#263238;" d="M139.862,415.004c0,0-17.778,0.455-19.071,0.292c-1.293-0.163-2.726-0.224-2.822-1.626
			c-0.047-0.681,0.616-4.811,0.709-6.248c0.093-1.438-0.255-2.19,1.55-2.653c1.806-0.463,10.598-1.483,11.661-0.388
			c1.063,1.095,4.677,5.244,7.365,5.719c2.688,0.475,4.921,0.292,5.114,1.806S144.621,414.89,139.862,415.004z"/>
		<path style="fill:#263238;" d="M191.054,415.004c0,0-17.778,0.455-19.071,0.292c-1.293-0.163-2.582-0.542-2.788-1.193
			c-0.206-0.651,0.582-5.244,0.675-6.681c0.093-1.438-0.255-2.19,1.55-2.653c1.806-0.463,10.599-1.483,11.662-0.388
			c1.063,1.095,4.677,5.244,7.365,5.719c2.688,0.475,4.921,0.292,5.114,1.806S195.813,414.89,191.054,415.004z"/>
		<path style="opacity:0.3;" d="M153.698,280.374c-3.08-18.453-6.271-34.021-9.148-41.291l1.906-10.48
			C146.456,228.603,151.414,266.028,153.698,280.374z"/>
		<path style="opacity:0.2;" d="M130.019,393.491l-0.24,4.801c-2.34,0.092-6.984,0.259-9.083,0.361l-0.074-4.616L130.019,393.491z"
			/>
		<path style="opacity:0.2;" d="M180.578,396.802l-9.703,0.453c-0.139-3.469-0.277-6.845-0.37-8.575l10.008,0.98L180.578,396.802z"
			/>
		<polygon style="fill:#407BFF;" points="186.978,386.497 185.493,394.11 167.726,395.484 165.399,386.497 		"/>
		<polygon style="fill:#407BFF;" points="135.908,388.976 134.351,396.495 115.812,397.379 115.82,388.976 		"/>
		<path style="fill:#407BFF;" d="M190.901,170.893c-4.014,1.906-15.003,4.015-15.003,4.015s-7.196-18.611-9.102-29.183
			c-1.906-10.573-10.36-14.171-15.225-14.809c-4.865-0.629-25.382-0.416-32.578,1.064c-7.178,1.48-8.454,12.053-9.093,18.398
			c-0.629,6.345-4.653,30.034-1.267,37.018c3.395,6.974,15.225,4.227,15.225,4.227v2.534h41.458l-0.953-19.395
			c0,0,3.913,10.302,10.046,10.719c6.133,0.426,19.878-9.722,19.878-9.722L190.901,170.893z M117.911,181.743
			c0,0,0.463-12.08,1.276-15.567l1.249,6.456l1.767,9.111H117.911z"/>
		<path style="fill:#FF8B7B;" d="M144.266,178.954l6.527-7.896l9.149-1.393l1.393,8.128l-6.967,2.554c0,0-3.367,4.064-10.102,3.367
			V178.954z"/>
		<path style="fill:#FF8B7B;" d="M190.905,170.892l3.384-6.221l8.268-3.483l3.135,8.477l-6.851,2.671c0,0-1.788,3.94-4.552,3.421
			L190.905,170.892z"/>
		<path style="fill:#FF8B7B;" d="M144.408,123.319c0,0-0.059,0.9,0.03,2.165c0.099,1.364-0.154,3.878,2.536,5.201
			c-1.395,2.989-4.743,10.518-6.77,13.063c-3.097-2.53-10.35-12.735-10.35-12.735s5.099-5.529,1.435-15.949
			c0,0-5.141-3.767-4.113-5.833c1.186-2.412,4.538-1.107,5.24-0.089c-0.742-1.097-4.231-13.169,0-17.608
			c2.64-2.778,5.289-2.808,10.203-3.025h0.089c0.109,0,0.227-0.01,0.336-0.01c3.144-0.109,5.487,0.01,5.487,0.01l0.02,0.02
			c0.158,0.168,1.424,1.473,2.808,3.767c0.01,0.01,0.02,0.03,0.03,0.039c1.651,2.729,3.519,6.831,3.974,12.012
			C156.232,114.213,154.284,122.241,144.408,123.319z"/>
		<path style="fill:none;stroke:#263238;stroke-width:0.5;stroke-linecap:round;stroke-linejoin:round;stroke-miterlimit:10;" d="
			M147.127,111.044c0,0-4.477,1.512-6.104-1.888"/>
		<path style="fill:none;stroke:#263238;stroke-linecap:round;stroke-linejoin:round;stroke-miterlimit:10;" d="M141.715,96.695
			c0,0-2.58-0.126-3.65,2.14"/>
		<path style="fill:none;stroke:#263238;stroke-linecap:round;stroke-linejoin:round;stroke-miterlimit:10;" d="M153.119,95.667
			c-1.246-1.343-2.845-1.3-2.845-1.3"/>
		<path style="fill:#FF5652;" d="M148.952,109.156l-0.881-7.489l4.405,5.664C152.477,107.331,152.099,109.282,148.952,109.156z"/>
		<path style="fill:#263238;" d="M141.756,101.731c0.055,0.763,0.5,1.352,0.993,1.317c0.494-0.035,0.85-0.682,0.795-1.445
			c-0.055-0.763-0.5-1.352-0.993-1.317C142.057,100.322,141.701,100.968,141.756,101.731z"/>
		<path style="fill:#263238;" d="M150.481,100.483c0.055,0.763,0.499,1.352,0.994,1.317c0.494-0.035,0.85-0.682,0.795-1.445
			c-0.055-0.763-0.5-1.352-0.993-1.317C150.783,99.073,150.427,99.72,150.481,100.483z"/>
		<path style="fill:#263238;" d="M129.353,103.597c0,0-5.113-6.849-0.889-11.283c2.639-2.776,9.739-4.579,14.65-4.79
			C143.022,88.678,143.114,98.835,129.353,103.597z"/>
		<path style="fill:#263238;" d="M151.378,92.335c0,0-4.785-0.307-8.334-3.836c-0.138-0.129-0.267-0.267-0.395-0.405
			c3.312-0.138,5.882,0.415,5.882,0.415l0.02,0.02c0.158,0.168,1.424,1.473,2.808,3.767L151.378,92.335z"/>
		<path style="opacity:0.2;" d="M144.438,125.484c-3.401-0.969-5.398-3.529-5.536-3.717c2.62,1.384,5.507,1.552,5.507,1.552
			S144.348,124.218,144.438,125.484z"/>
		<path style="opacity:0.2;" d="M120.436,172.632l-1.249-6.456v-9.259C119.187,156.917,120.63,166.694,120.436,172.632z"/>
	</g>
</g>
<g id="Character_2">
	<g>
		<g>
			<g>
				<g>
					
						<rect x="232.855" y="144.689" transform="matrix(0.9984 -0.0565 0.0565 0.9984 -9.335 15.5002)" style="fill:#407BFF;" width="73.011" height="56.188"/>
					
						<rect x="232.855" y="144.689" transform="matrix(0.9984 -0.0565 0.0565 0.9984 -9.335 15.5002)" style="opacity:0.3;" width="73.011" height="56.188"/>
				</g>
				
					<rect x="206.365" y="146.189" transform="matrix(0.9984 -0.0565 0.0565 0.9984 -9.4621 14.0054)" style="fill:#407BFF;" width="73.011" height="56.188"/>
				
					<rect x="206.365" y="146.189" transform="matrix(0.9984 -0.0565 0.0565 0.9984 -9.4621 14.0054)" style="opacity:0.3;fill:#FFFFFF;" width="73.011" height="56.188"/>
			</g>
			
				<rect x="270.363" y="150.219" transform="matrix(0.9984 -0.0565 0.0565 0.9984 -8.1942 15.9648)" style="opacity:0.3;" width="15.559" height="5.254"/>
			
				<rect x="209.615" y="154.623" transform="matrix(0.9984 -0.0565 0.0565 0.9984 -8.632 12.541)" style="opacity:0.5;fill:#FFFFFF;" width="15.559" height="8.504"/>
			
				<rect x="206.666" y="176.99" transform="matrix(0.9984 -0.0565 0.0565 0.9984 -9.8417 12.6443)" style="opacity:0.3;" width="23.883" height="6.629"/>
		</g>
		<g>
			<path style="fill:#A02724;" d="M325.282,96.434l-3.971,5.097c0,0,1.166,0.997,3.702,1.508L325.282,96.434z"/>
			<polygon style="fill:#B55B52;" points="394.317,409.214 382.699,408.552 380.341,398.639 379.05,393.21 378.57,391.207 
				387.515,390.595 388.152,390.554 390.047,396.297 			"/>
			<path style="fill:#B55B52;" d="M327.496,410.844c0.224,0.786-10.782-0.621-10.782-0.621l-0.389-9.252l-0.306-7.141l-0.016-0.389
				l0.091,0.008l11.18,1.109c0,0,0,2.996,0.017,6.413C327.314,405.341,327.372,410.406,327.496,410.844z"/>
			<path style="fill:#B55B52;" d="M350.824,123.252c0,0-15.706,4.245-14.539,1.167c0.662-1.746,0.745-4.08,0.687-5.768
				c-0.041-1.283-0.157-2.193-0.157-2.193c-5.685,0.331-9.5-3.782-11.204-8.838c-2.185-6.488-1.39-13.737,1.266-19.901
				c0.215-0.496,0.811-2.623,1.349-2.88l6.157-2.863c0,0,6.041,3.931,9.119,6.372c3.078,2.441,5.627,13.786,5.627,22.599
				C349.127,119.752,350.824,123.252,350.824,123.252z"/>
			<path style="fill:#263238;" d="M324.809,94.557c0,0-0.942,0.211-1.01,1.249c-0.068,1.038,0.658,1.363,0.658,1.363L324.809,94.557
				z"/>
			<path style="fill:none;stroke:#263238;stroke-linecap:round;stroke-linejoin:round;stroke-miterlimit:10;" d="M324.809,89.476
				c0,0,0.988-0.057,1.847,0.515"/>
			<path style="fill:#263238;" d="M330.265,105.715c0,0,4.564,7.115,11.821,8.744c7.257,1.63,9.554-0.891,10.526-5.02
				c0.972-4.129,2.918-7.759,5.428-10.35c2.51-2.591,1.002-9.615-2.189-15.398c0,0,3.417-2.874-2.089-5.627
				c-5.506-2.753-7.546,1.822-12.323-0.85c-4.777-2.672,1.582-3.575-2.953,4.765c-4.534,8.34-7.028,2.279-7.665,6.004
				C330.184,91.707,326.656,98.185,330.265,105.715z"/>
			<path style="fill:#407BFF;" d="M330.823,89.73c-0.455-0.149-14.912-5.379-15.052-7.754c-0.141-2.367,11.213,1.945,11.635,2.11
				l0.008,0.008l2.929,4.626L330.823,89.73z"/>
			<path style="fill:#407BFF;" d="M360.009,95.464c-0.141,0.422-0.96,3.277-1.374,3.277c-0.405-0.017-0.803-0.041-1.208-0.075
				c-1.125-0.083-2.242-0.215-3.36-0.389c-1.225-0.19-2.433-0.43-3.624-0.703l-0.058-0.017c-1.208-0.29-2.4-0.604-3.558-0.96
				c-3.078-0.919-5.942-2.019-8.366-3.07l-0.025-0.008c-1.539-0.67-2.896-1.316-4.03-1.878c-2.243-1.117-3.583-1.912-3.583-1.912
				l-0.207-0.331l-0.819-1.291l-1.746-2.764l-0.596-0.935l-0.041-0.066c-0.041-0.066-0.058-0.157-0.041-0.265
				c0.058-1.059,2.226-3.972,2.615-4.493c1.663-2.176,3.567-3.873,6.008-5.222c3.211-1.787,6.844-1.001,10.269-0.406
				c1.01,0.174,2.185,0.555,3.409,1.068c0.016,0.008,0.025,0.008,0.041,0.017c0.215,0.091,0.439,0.19,0.662,0.29h0.008
				c0.041,0.017,0.091,0.041,0.132,0.058c0.124,0.066,0.248,0.124,0.372,0.182c0.074,0.033,0.149,0.066,0.223,0.108
				c2.665,1.307,5.329,3.128,6.827,4.808C362.392,85.501,360.555,93.834,360.009,95.464z"/>
			<path style="fill:#407BFF;" d="M355.106,128.622c0,0-0.715-5.007-2.289-6.008c-1.574-1.001-17.166-0.858-19.598,0.858
				c-2.432,1.717-2.003,7.295-2.003,7.295L355.106,128.622z"/>
			<path style="fill:#B55B52;" d="M327.417,97.808c0,0,2.667-3.438,5.512-1.304c2.845,2.134,0.593,7.172-2.756,8.594
				c0,0-4.328,1.413-4.891-2.954C324.72,97.777,327.417,97.808,327.417,97.808z"/>
			<g>
				<g>
					<path style="fill:#407BFF;" d="M316.745,217.528c0,0-5.945,56.929-7.607,83.116c-1.663,26.187,4.441,93.125,4.441,93.125
						h14.472c0,0,1.663-66.506,4.157-86.458c2.494-19.952,10.807-46.97,10.807-46.97s4.988,42.813,9.976,60.271
						c4.988,17.458,21.238,70.799,21.238,70.799l16.659-3.204c0,0-20.023-68.427-20.023-89.626c0-21.199,0.19-64.012-4.798-81.054
						H316.745z"/>
					<path style="opacity:0.3;" d="M390.883,388.204l-16.658,3.211c0,0-16.244-53.341-21.234-70.802
						c-2.747-9.607-5.495-26.894-7.406-40.498c-1.564-11.113-2.574-19.777-2.574-19.777s-8.308,27.018-10.807,46.978
						c-2.491,19.951-4.154,86.458-4.154,86.458h-14.473c0,0-6.099-66.945-4.435-93.128c1.655-26.191,7.605-83.115,7.605-83.115
						h49.319c4.99,17.038,4.8,59.854,4.8,81.054C370.866,319.777,390.883,388.204,390.883,388.204z"/>
				</g>
				<path style="opacity:0.3;" d="M345.585,280.115c-1.564-11.113-2.574-19.777-2.574-19.777l0.952-15.532L345.585,280.115z"/>
			</g>
			<polygon style="fill:#263238;" points="312.013,390.993 329.352,390.993 328.502,398.133 312.693,398.133 			"/>
			<polygon style="fill:#263238;" points="372.14,389.949 390.887,382.982 393.257,393.119 374.961,398.133 			"/>
			<polygon style="opacity:0.2;" points="387.515,390.595 379.05,393.21 380.341,398.639 390.047,396.297 			"/>
			<path style="opacity:0.2;" d="M327.289,400.972h-10.965l-0.306-7.141l0.074-0.381l11.18,1.109
				C327.273,394.559,327.273,397.555,327.289,400.972z"/>
			<path style="fill:none;stroke:#407BFF;stroke-miterlimit:10;" d="M310.982,414.388c0.064,0.19-6.922-3.874-5.017-5.779
				C307.871,406.704,310.982,414.388,310.982,414.388z"/>
			<path style="fill:none;stroke:#407BFF;stroke-miterlimit:10;" d="M311.988,414.1c-0.045,0.196-3.901-6.906-1.283-7.544
				C313.323,405.919,311.988,414.1,311.988,414.1z"/>
			<path style="fill:none;stroke:#407BFF;stroke-miterlimit:10;" d="M381.089,410.07c0,0-2.286-7.366-4.509-6.16
				C374.358,405.117,381.089,410.07,381.089,410.07z"/>
			<path style="fill:none;stroke:#407BFF;stroke-miterlimit:10;" d="M380.473,410.711c0,0-5.176-5.719-6.683-3.688
				S380.473,410.711,380.473,410.711z"/>
			<path style="fill:#263238;" d="M394.754,408.528h-12.429c0,0-7.177,4.326-10.323,4.719c-3.146,0.393-5.014,0.59-4.915,2.851
				c0.098,2.261,1.966,2.458,8.455,2.359c6.488-0.098,19.247,0.688,20.634-0.59C397.564,416.59,396.693,414.18,394.754,408.528z"/>
			<path style="fill:#263238;" d="M327.499,410.07l-11.998,0.088c0,0-7.177,4.326-10.323,4.719c-3.146,0.393-5.014,0.59-4.915,2.851
				s1.966,2.458,8.455,2.359c6.488-0.098,17.854,0.833,19.241-0.445C329.346,418.365,328.581,416.263,327.499,410.07z"/>
			<path style="opacity:0.3;" d="M327.405,84.086c0.316,1.589,0.633,2.809,3.26,5.589c-3.335-1.241-14.771-5.663-14.895-7.699
				C315.654,80.007,324.525,83.044,327.405,84.086z"/>
			<path style="opacity:0.3;" d="M327.413,84.343c-0.041-0.066-0.058-0.157-0.041-0.265c0.017,0,0.025,0.008,0.033,0.008
				l0.008,0.008c0,0,0.008,0.108,0.041,0.314L327.413,84.343z"/>
			<path style="opacity:0.3;" d="M330.823,89.73c-0.033-0.008-0.141-0.05-0.314-0.116c0.016-0.041,0.041-0.083,0.058-0.124
				C330.649,89.573,330.732,89.647,330.823,89.73z"/>
			<path style="fill:#407BFF;" d="M360.009,95.464c-0.141,0.422-0.96,3.277-1.374,3.277c-0.405-0.017-0.803-0.041-1.208-0.075
				c-1.125-0.083-2.242-0.215-3.36-0.389c-1.225-0.19-2.433-0.43-3.624-0.703l-0.058-0.017c-1.208-0.29-2.4-0.604-3.558-0.96
				c-3.078-0.919-5.942-2.019-8.366-3.07l-0.025-0.008c-1.539-0.67-2.896-1.316-4.03-1.878c-2.243-1.117-3.583-1.912-3.583-1.912
				l-0.207-0.331l-0.819-1.291l-1.746-2.764l-0.596-0.935l-0.041-0.066c-0.041-0.066-0.058-0.157-0.041-0.265
				c0.058-1.059,2.226-3.972,2.615-4.493c1.663-2.176,3.567-3.873,6.008-5.222c3.211-1.787,6.844-1.001,10.269-0.406
				c1.01,0.174,2.185,0.555,3.409,1.068c0.016,0.008,0.025,0.008,0.041,0.017c0.215,0.091,0.439,0.19,0.662,0.29h0.008
				c0.041,0.017,0.091,0.041,0.132,0.058c0.124,0.066,0.248,0.124,0.372,0.182c0.074,0.033,0.149,0.066,0.223,0.108
				c2.665,1.307,5.329,3.128,6.827,4.808C362.392,85.501,360.555,93.834,360.009,95.464z"/>
			<path style="opacity:0.2;" d="M340.331,115.498c0,0-1.564,1.655-3.36,3.153c-0.041-1.283-0.157-2.193-0.157-2.193
				S338.99,116.127,340.331,115.498z"/>
			<path style="fill:#263238;" d="M316.745,218.089v-51.216l-9.35-3.808c0,0,1.798-27.332,15.105-31.648
				c13.306-4.316,37.042-6.114,43.515,0c4.124,3.895,4.671,10.138,4.827,15.486c0.318,10.899-2.536,21.562-3.158,32.4
				c-0.506,8.815-0.799,17.643-1.035,26.468c-0.018,0.677-0.262,12.318-0.274,12.318
				C366.374,218.089,316.745,218.089,316.745,218.089z"/>
			<path style="fill:#B55B52;" d="M321.866,168.622c0,0-6.919,22.854-13.752,24.293c-6.833,1.439-30.209-11.328-30.209-11.328
				l-10.429,0.057l-1.439-9.227c0,0,9.71-3.596,16.184,0.719c0,0,15.105,6.587,20.139,8.508l7.249-17.676L321.866,168.622z"/>
		</g>
	</g>
</g>
</svg>
